<svg width="60" height="60" viewBox="0 0 60 60" fill="none" xmlns="http://www.w3.org/2000/svg">
<path d="M37.8125 52.75L16.75 31.75C16.5 31.5 16.3233 31.2292 16.22 30.9375C16.115 30.6458 16.0625 30.3333 16.0625 30C16.0625 29.6667 16.115 29.3542 16.22 29.0625C16.3233 28.7708 16.5 28.5 16.75 28.25L37.8125 7.1875C38.3958 6.60416 39.125 6.3125 40 6.3125C40.875 6.3125 41.625 6.625 42.25 7.25C42.875 7.875 43.1875 8.60416 43.1875 9.4375C43.1875 10.2708 42.875 11 42.25 11.625L23.875 30L42.25 48.375C42.8333 48.9583 43.125 49.6767 43.125 50.53C43.125 51.385 42.8125 52.125 42.1875 52.75C41.5625 53.375 40.8333 53.6875 40 53.6875C39.1667 53.6875 38.4375 53.375 37.8125 52.75Z" fill="white"/>
</svg>
