<svg width="60" height="60" viewBox="0 0 60 60" fill="none" xmlns="http://www.w3.org/2000/svg">
<path d="M22.1875 52.75L43.25 31.75C43.5 31.5 43.6767 31.2292 43.78 30.9375C43.885 30.6458 43.9375 30.3333 43.9375 30C43.9375 29.6667 43.885 29.3542 43.78 29.0625C43.6767 28.7708 43.5 28.5 43.25 28.25L22.1875 7.1875C21.6042 6.60416 20.875 6.3125 20 6.3125C19.125 6.3125 18.375 6.625 17.75 7.25C17.125 7.875 16.8125 8.60416 16.8125 9.4375C16.8125 10.2708 17.125 11 17.75 11.625L36.125 30L17.75 48.375C17.1667 48.9583 16.875 49.6767 16.875 50.53C16.875 51.385 17.1875 52.125 17.8125 52.75C18.4375 53.375 19.1667 53.6875 20 53.6875C20.8333 53.6875 21.5625 53.375 22.1875 52.75Z" fill="white"/>
</svg>
