<svg width="21" height="20" viewBox="0 0 21 20" fill="none" xmlns="http://www.w3.org/2000/svg">
<path d="M9.05293 19.605L0.362117 10.9142C0.230438 10.7825 0.136946 10.6398 0.0816407 10.4862C0.0272134 10.3326 0 10.168 0 9.9924C0 9.81683 0.0272134 9.65223 0.0816407 9.49861C0.136946 9.34498 0.230438 9.20233 0.362117 9.07065L9.05293 0.379843C9.29434 0.138431 9.59588 0.0120199 9.95756 0.000607751C10.3201 -0.00992656 10.6331 0.116485 10.8964 0.379843C11.1598 0.621254 11.2972 0.922799 11.3086 1.28448C11.3191 1.64703 11.1927 1.95999 10.9293 2.22335L4.47708 8.67561H19.1922C19.5653 8.67561 19.8782 8.80159 20.1311 9.05353C20.383 9.30636 20.509 9.61931 20.509 9.9924C20.509 10.3655 20.383 10.678 20.1311 10.93C19.8782 11.1828 19.5653 11.3092 19.1922 11.3092H4.47708L10.9293 17.7615C11.1708 18.0029 11.2972 18.3101 11.3086 18.6832C11.3191 19.0563 11.1927 19.3636 10.9293 19.605C10.6879 19.8683 10.3807 20 10.0076 20C9.63451 20 9.31628 19.8683 9.05293 19.605Z" fill="white"/>
</svg>
